<svg xmlns="http://www.w3.org/2000/svg" viewBox="0 0 32 32" width="32" height="32">
  <!-- Blueprint style background -->
  <rect width="32" height="32" rx="4" fill="#0b1a30" />
  
  <!-- Grid lines -->
  <line x1="8" y1="0" x2="8" y2="32" stroke="rgba(56, 189, 248, 0.15)" stroke-width="0.75" />
  <line x1="16" y1="0" x2="16" y2="32" stroke="rgba(56, 189, 248, 0.15)" stroke-width="0.75" />
  <line x1="24" y1="0" x2="24" y2="32" stroke="rgba(56, 189, 248, 0.15)" stroke-width="0.75" />
  <line x1="0" y1="8" x2="32" y2="8" stroke="rgba(56, 189, 248, 0.15)" stroke-width="0.75" />
  <line x1="0" y1="16" x2="32" y2="16" stroke="rgba(56, 189, 248, 0.15)" stroke-width="0.75" />
  <line x1="0" y1="24" x2="32" y2="24" stroke="rgba(56, 189, 248, 0.15)" stroke-width="0.75" />

  <!-- Outer circle with dashed technical lines -->
  <circle cx="16" cy="16" r="11" fill="none" stroke="rgba(56, 189, 248, 0.4)" stroke-width="1.25" stroke-dasharray="2 2" />

  <!-- Refresh/Conversion arrow icon in glowing cyan -->
  <g stroke="#38bdf8" stroke-width="2.5" stroke-linecap="round" stroke-linejoin="round" fill="none">
    <!-- Top-right arrow arc -->
    <path d="M24 13a8 8 0 0 0-8-8 8.7 8.7 0 0 0-6 2.4L6 11M6 6v5h5" />
    <!-- Bottom-left arrow arc -->
    <path d="M8 19a8 8 0 0 0 8 8 8.7 8.7 0 0 0 6-2.4L26 21M26 26v-5h-5" />
  </g>
</svg>
